<svg version="1.1" id="Layer_1" xmlns="http://www.w3.org/2000/svg" xmlns:xlink="http://www.w3.org/1999/xlink" x="0px" y="0px"
	 width="100%" viewBox="0 0 500 500" enable-background="new 0 0 500 500" xml:space="preserve">
<path fill="#FFFFFF" opacity="1.000000" stroke="none" 
	d="
M277.000000,501.000000 
	C184.666687,501.000000 92.833374,501.000000 1.000049,501.000000 
	C1.000033,334.333405 1.000033,167.666794 1.000016,1.000139 
	C167.666565,1.000093 334.333130,1.000093 500.999756,1.000046 
	C500.999847,167.666519 500.999847,334.333038 500.999939,500.999786 
	C426.500000,501.000000 352.000000,501.000000 277.000000,501.000000 
M181.656128,190.856232 
	C186.618271,195.447708 192.949188,195.533646 199.033630,195.620651 
	C215.857132,195.861206 232.686584,195.778580 249.512833,195.680725 
	C254.825119,195.649841 260.161438,195.409790 265.438843,194.829529 
	C271.973419,194.111053 276.646973,190.587860 278.486938,184.122665 
	C281.509766,173.500946 273.255646,162.233551 262.150818,162.146362 
	C239.495438,161.968491 216.837555,162.135056 194.180923,162.075562 
	C186.612579,162.055695 182.122269,166.613174 179.126389,172.609055 
	C176.096237,178.673538 176.608032,184.860718 181.656128,190.856232 
M241.501129,252.201187 
	C225.692551,252.160782 209.882889,251.993820 194.075821,252.129669 
	C185.251724,252.205490 177.416748,260.138885 177.353226,269.373291 
	C177.296356,277.642792 180.891495,284.589966 191.321899,284.821777 
	C215.232849,285.353180 239.171494,285.346130 263.082764,284.821991 
	C273.202179,284.600189 278.315125,278.073975 277.903839,268.573700 
	C277.532532,259.995514 269.687561,252.263290 260.974670,252.105072 
	C254.819351,251.993286 248.659119,252.152557 241.501129,252.201187 
M248.815735,327.819305 
	C250.518951,328.450043 252.217255,329.615356 253.926102,329.630981 
	C278.028015,329.851501 302.131775,330.023651 326.233948,329.928040 
	C331.130463,329.908630 335.032684,327.246918 337.573059,322.825165 
	C343.954529,311.717651 335.723694,297.485504 322.244873,297.261139 
	C301.302307,296.912506 280.349457,297.154449 259.401093,297.196991 
	C251.057556,297.213928 246.270401,302.112213 243.506638,309.375031 
	C240.827148,316.416382 242.707565,322.408691 248.815735,327.819305 
M264.552643,207.029449 
	C251.501648,207.050430 246.698334,210.065903 243.023087,220.545425 
	C240.079117,228.939835 245.654465,238.440445 254.445053,239.640778 
	C259.035461,240.267609 263.699615,240.708282 268.324982,240.664032 
	C287.765533,240.478058 307.223999,240.499771 326.635162,239.583206 
	C336.868652,239.099991 342.553925,227.827881 338.441498,218.447067 
	C335.051300,210.713623 329.275604,206.982071 320.859619,207.010422 
	C302.415833,207.072571 283.971710,207.043427 264.552643,207.029449 
z"/>
<path fill="#FD72B5" opacity="1.000000" stroke="none" 
	d="
M181.398376,190.592331 
	C176.608032,184.860718 176.096237,178.673538 179.126389,172.609055 
	C182.122269,166.613174 186.612579,162.055695 194.180923,162.075562 
	C216.837555,162.135056 239.495438,161.968491 262.150818,162.146362 
	C273.255646,162.233551 281.509766,173.500946 278.486938,184.122665 
	C276.646973,190.587860 271.973419,194.111053 265.438843,194.829529 
	C260.161438,195.409790 254.825119,195.649841 249.512833,195.680725 
	C232.686584,195.778580 215.857132,195.861206 199.033630,195.620651 
	C192.949188,195.533646 186.618271,195.447708 181.398376,190.592331 
z"/>
<path fill="#F8E872" opacity="1.000000" stroke="none" 
	d="
M242.001099,252.196014 
	C248.659119,252.152557 254.819351,251.993286 260.974670,252.105072 
	C269.687561,252.263290 277.532532,259.995514 277.903839,268.573700 
	C278.315125,278.073975 273.202179,284.600189 263.082764,284.821991 
	C239.171494,285.346130 215.232849,285.353180 191.321899,284.821777 
	C180.891495,284.589966 177.296356,277.642792 177.353226,269.373291 
	C177.416748,260.138885 185.251724,252.205490 194.075821,252.129669 
	C209.882889,251.993820 225.692551,252.160782 242.001099,252.196014 
z"/>
<path fill="#AC4AD2" opacity="1.000000" stroke="none" 
	d="
M248.526947,327.593018 
	C242.707565,322.408691 240.827148,316.416382 243.506638,309.375031 
	C246.270401,302.112213 251.057556,297.213928 259.401093,297.196991 
	C280.349457,297.154449 301.302307,296.912506 322.244873,297.261139 
	C335.723694,297.485504 343.954529,311.717651 337.573059,322.825165 
	C335.032684,327.246918 331.130463,329.908630 326.233948,329.928040 
	C302.131775,330.023651 278.028015,329.851501 253.926102,329.630981 
	C252.217255,329.615356 250.518951,328.450043 248.526947,327.593018 
z"/>
<path fill="#5AD8C1" opacity="1.000000" stroke="none" 
	d="
M265.040192,207.040512 
	C283.971710,207.043427 302.415833,207.072571 320.859619,207.010422 
	C329.275604,206.982071 335.051300,210.713623 338.441498,218.447067 
	C342.553925,227.827881 336.868652,239.099991 326.635162,239.583206 
	C307.223999,240.499771 287.765533,240.478058 268.324982,240.664032 
	C263.699615,240.708282 259.035461,240.267609 254.445053,239.640778 
	C245.654465,238.440445 240.079117,228.939835 243.023087,220.545425 
	C246.698334,210.065903 251.501648,207.050430 265.040192,207.040512 
z"/>
</svg>