<svg xmlns="http://www.w3.org/2000/svg" xmlns:xlink="http://www.w3.org/1999/xlink" width="500" zoomAndPan="magnify" viewBox="0 0 375 374.999991" height="500" preserveAspectRatio="xMidYMid meet" version="1.0"><defs><clipPath id="263bdd6a7a"><path d="M 78.011719 78.011719 L 168 78.011719 L 168 136 L 78.011719 136 Z M 78.011719 78.011719 " clip-rule="nonzero"/></clipPath></defs><path fill="#b3fdff" d="M 82.136719 82.136719 L 163.535156 82.136719 L 163.535156 131.484375 L 82.136719 131.484375 Z M 82.136719 82.136719 " fill-opacity="1" fill-rule="nonzero"/><g clip-path="url(#263bdd6a7a)"><path fill="#1193ff" d="M 163.558594 135.71875 L 82.136719 135.71875 C 79.824219 135.71875 77.933594 133.824219 77.933594 131.511719 L 77.933594 82.136719 C 77.933594 79.824219 79.824219 77.933594 82.136719 77.933594 L 163.535156 77.933594 C 165.847656 77.933594 167.738281 79.824219 167.738281 82.136719 L 167.738281 131.484375 C 167.765625 133.824219 165.875 135.71875 163.558594 135.71875 Z M 86.371094 127.277344 L 159.355469 127.277344 L 159.355469 86.371094 L 86.371094 86.371094 Z M 86.371094 127.277344 " fill-opacity="1" fill-rule="nonzero"/></g><path fill="#1193ff" d="M 135.480469 98.992188 L 94.785156 98.992188 C 92.46875 98.992188 90.578125 97.097656 90.578125 94.785156 C 90.578125 92.46875 92.46875 90.578125 94.785156 90.578125 L 135.480469 90.578125 C 137.796875 90.578125 139.6875 92.46875 139.6875 94.785156 C 139.6875 97.097656 137.796875 98.992188 135.480469 98.992188 Z M 135.480469 98.992188 " fill-opacity="1" fill-rule="nonzero"/><path fill="#1193ff" d="M 148.101562 111.609375 L 94.785156 111.609375 C 92.46875 111.609375 90.578125 109.71875 90.578125 107.402344 C 90.578125 105.089844 92.46875 103.195312 94.785156 103.195312 L 148.128906 103.195312 C 150.441406 103.195312 152.332031 105.089844 152.332031 107.402344 C 152.308594 109.71875 150.441406 111.609375 148.101562 111.609375 Z M 148.101562 111.609375 " fill-opacity="1" fill-rule="nonzero"/><path fill="#1193ff" d="M 148.101562 124.230469 L 94.785156 124.230469 C 92.46875 124.230469 90.578125 122.335938 90.578125 120.023438 C 90.578125 117.710938 92.46875 115.816406 94.785156 115.816406 L 148.128906 115.816406 C 150.441406 115.816406 152.332031 117.710938 152.332031 120.023438 C 152.308594 122.363281 150.441406 124.230469 148.101562 124.230469 Z M 148.101562 124.230469 " fill-opacity="1" fill-rule="nonzero"/><path fill="#1193ff" d="M 143.394531 260.570312 L 118.65625 260.570312 C 116.34375 260.570312 114.449219 258.679688 114.449219 256.367188 L 114.449219 211.960938 L 94.785156 211.960938 C 92.46875 211.960938 90.578125 210.066406 90.578125 207.753906 L 90.578125 131.484375 C 90.578125 129.171875 92.46875 127.277344 94.785156 127.277344 C 97.097656 127.277344 98.992188 129.171875 98.992188 131.484375 L 98.992188 203.523438 L 118.65625 203.523438 C 120.96875 203.523438 122.863281 205.414062 122.863281 207.726562 L 122.863281 252.132812 L 143.394531 252.132812 C 145.707031 252.132812 147.601562 254.027344 147.601562 256.339844 C 147.601562 258.679688 145.707031 260.570312 143.394531 260.570312 Z M 143.394531 260.570312 " fill-opacity="1" fill-rule="nonzero"/><path fill="#1193ff" d="M 119.078125 170.761719 L 103.195312 170.761719 C 100.882812 170.761719 98.992188 168.871094 98.992188 166.558594 C 98.992188 164.242188 100.882812 162.351562 103.195312 162.351562 L 119.078125 162.351562 C 121.390625 162.351562 123.28125 164.242188 123.28125 166.558594 C 123.28125 168.898438 121.417969 170.761719 119.078125 170.761719 Z M 119.078125 170.761719 " fill-opacity="1" fill-rule="nonzero"/><path fill="#1193ff" d="M 219.425781 172.417969 L 200.945312 172.417969 C 198.632812 172.417969 196.738281 170.527344 196.738281 168.214844 C 196.738281 165.898438 198.632812 164.007812 200.945312 164.007812 L 219.425781 164.007812 C 221.742188 164.007812 223.632812 165.898438 223.632812 168.214844 C 223.632812 170.527344 221.742188 172.417969 219.425781 172.417969 Z M 219.425781 172.417969 " fill-opacity="1" fill-rule="nonzero"/><path fill="#1193ff" d="M 232.046875 193.6875 C 229.734375 193.6875 227.839844 191.796875 227.839844 189.484375 L 227.839844 172.417969 C 227.839844 170.105469 229.734375 168.214844 232.046875 168.214844 C 234.359375 168.214844 236.253906 170.105469 236.253906 172.417969 L 236.253906 189.484375 C 236.253906 191.796875 234.359375 193.6875 232.046875 193.6875 Z M 232.046875 193.6875 " fill-opacity="1" fill-rule="nonzero"/><path fill="#1193ff" d="M 232.046875 147.496094 C 229.734375 147.496094 227.839844 145.605469 227.839844 143.289062 L 227.839844 126.226562 C 227.839844 123.914062 229.734375 122.019531 232.046875 122.019531 C 234.359375 122.019531 236.253906 123.914062 236.253906 126.226562 L 236.253906 143.289062 C 236.253906 145.628906 234.359375 147.496094 232.046875 147.496094 Z M 232.046875 147.496094 " fill-opacity="1" fill-rule="nonzero"/><path fill="#fff8aa" d="M 157.90625 245.375 L 239.328125 245.375 L 239.328125 292.621094 L 157.90625 292.621094 Z M 157.90625 245.375 " fill-opacity="1" fill-rule="nonzero"/><path fill="#ffb827" d="M 239.328125 296.828125 L 186.695312 296.828125 C 184.382812 296.828125 182.488281 294.933594 182.488281 292.621094 C 182.488281 290.304688 184.382812 288.414062 186.695312 288.414062 L 235.097656 288.414062 L 235.097656 249.582031 L 162.113281 249.582031 L 162.113281 288.414062 L 169.871094 288.414062 C 172.183594 288.414062 174.078125 290.304688 174.078125 292.621094 C 174.078125 294.933594 172.183594 296.828125 169.871094 296.828125 L 157.90625 296.828125 C 155.59375 296.828125 153.699219 294.933594 153.699219 292.621094 L 153.699219 245.375 C 153.699219 243.0625 155.59375 241.167969 157.90625 241.167969 L 239.304688 241.167969 C 241.617188 241.167969 243.507812 243.0625 243.507812 245.375 L 243.507812 292.621094 C 243.535156 294.933594 241.644531 296.828125 239.328125 296.828125 Z M 239.328125 296.828125 " fill-opacity="1" fill-rule="nonzero"/><path fill="#ffffff" d="M 145.289062 232.730469 L 226.710938 232.730469 L 226.710938 279.972656 L 145.289062 279.972656 Z M 145.289062 232.730469 " fill-opacity="1" fill-rule="nonzero"/><path fill="#ffb827" d="M 226.683594 284.179688 L 145.289062 284.179688 C 142.972656 284.179688 141.082031 282.289062 141.082031 279.972656 L 141.082031 232.730469 C 141.082031 230.417969 142.972656 228.523438 145.289062 228.523438 L 226.683594 228.523438 C 228.996094 228.523438 230.890625 230.417969 230.890625 232.730469 L 230.890625 279.972656 C 230.917969 282.3125 229.023438 284.179688 226.683594 284.179688 Z M 149.496094 275.769531 L 222.476562 275.769531 L 222.476562 236.9375 L 149.496094 236.9375 Z M 149.496094 275.769531 " fill-opacity="1" fill-rule="nonzero"/><path fill="#cdffe4" d="M 119.523438 142.949219 L 200.917969 142.949219 L 200.917969 192.296875 L 119.523438 192.296875 Z M 119.523438 142.949219 " fill-opacity="1" fill-rule="nonzero"/><path fill="#0adcbf" d="M 200.945312 196.503906 L 119.523438 196.503906 C 117.210938 196.503906 115.316406 194.609375 115.316406 192.296875 L 115.316406 142.949219 C 115.316406 140.632812 117.210938 138.742188 119.523438 138.742188 L 200.945312 138.742188 C 203.257812 138.742188 205.152344 140.632812 205.152344 142.949219 L 205.152344 192.296875 C 205.152344 194.609375 203.257812 196.503906 200.945312 196.503906 Z M 123.730469 188.089844 L 196.710938 188.089844 L 196.710938 147.15625 L 123.730469 147.15625 Z M 123.730469 188.089844 " fill-opacity="1" fill-rule="nonzero"/><path fill="#ffffff" d="M 219.402344 142.949219 L 292.59375 142.949219 L 292.59375 172.417969 L 219.402344 172.417969 Z M 219.402344 142.949219 " fill-opacity="1" fill-rule="nonzero"/><path fill="#0adcbf" d="M 292.621094 176.625 L 219.425781 176.625 C 217.113281 176.625 215.222656 174.734375 215.222656 172.417969 L 215.222656 142.949219 C 215.222656 140.632812 217.113281 138.742188 219.425781 138.742188 L 292.621094 138.742188 C 294.933594 138.742188 296.828125 140.632812 296.828125 142.949219 L 296.828125 172.417969 C 296.828125 174.734375 294.933594 176.625 292.621094 176.625 Z M 223.632812 168.214844 L 288.414062 168.214844 L 288.414062 147.15625 L 223.632812 147.15625 Z M 223.632812 168.214844 " fill-opacity="1" fill-rule="nonzero"/><path fill="#ffffff" d="M 219.402344 189.484375 L 292.59375 189.484375 L 292.59375 218.953125 L 219.402344 218.953125 Z M 219.402344 189.484375 " fill-opacity="1" fill-rule="nonzero"/><path fill="#0adcbf" d="M 292.621094 223.160156 L 219.425781 223.160156 C 217.113281 223.160156 215.222656 221.269531 215.222656 218.953125 L 215.222656 189.484375 C 215.222656 187.167969 217.113281 185.277344 219.425781 185.277344 L 292.621094 185.277344 C 294.933594 185.277344 296.828125 187.167969 296.828125 189.484375 L 296.828125 218.953125 C 296.828125 221.269531 294.933594 223.160156 292.621094 223.160156 Z M 223.632812 214.746094 L 288.414062 214.746094 L 288.414062 193.714844 L 223.632812 193.714844 Z M 223.632812 214.746094 " fill-opacity="1" fill-rule="nonzero"/><path fill="#b3fdff" d="M 103.195312 166.558594 C 103.195312 171.210938 99.4375 174.96875 94.785156 174.96875 C 90.128906 174.96875 86.371094 171.210938 86.371094 166.558594 C 86.371094 161.902344 90.128906 158.144531 94.785156 158.144531 C 99.4375 158.144531 103.195312 161.929688 103.195312 166.558594 Z M 103.195312 166.558594 " fill-opacity="1" fill-rule="nonzero"/><path fill="#1193ff" d="M 94.785156 179.203125 C 87.816406 179.203125 82.164062 173.550781 82.164062 166.582031 C 82.164062 159.617188 87.816406 153.964844 94.785156 153.964844 C 101.75 153.964844 107.402344 159.617188 107.402344 166.582031 C 107.402344 173.523438 101.75 179.203125 94.785156 179.203125 Z M 94.785156 162.351562 C 92.46875 162.351562 90.578125 164.242188 90.578125 166.558594 C 90.578125 168.871094 92.46875 170.761719 94.785156 170.761719 C 97.097656 170.761719 98.992188 168.871094 98.992188 166.558594 C 98.992188 164.242188 97.097656 162.351562 94.785156 162.351562 Z M 94.785156 162.351562 " fill-opacity="1" fill-rule="nonzero"/><path fill="#b3fdff" d="M 127.070312 229.96875 C 127.070312 234.625 123.308594 238.382812 118.65625 238.382812 C 114.003906 238.382812 110.242188 234.625 110.242188 229.96875 C 110.242188 225.316406 114.003906 221.558594 118.65625 221.558594 C 123.28125 221.558594 127.070312 225.316406 127.070312 229.96875 Z M 127.070312 229.96875 " fill-opacity="1" fill-rule="nonzero"/><path fill="#1193ff" d="M 118.65625 242.589844 C 111.6875 242.589844 106.035156 236.9375 106.035156 229.96875 C 106.035156 223.003906 111.6875 217.351562 118.65625 217.351562 C 125.621094 217.351562 131.273438 223.003906 131.273438 229.96875 C 131.273438 236.9375 125.597656 242.589844 118.65625 242.589844 Z M 118.65625 225.761719 C 116.34375 225.761719 114.449219 227.65625 114.449219 229.96875 C 114.449219 232.285156 116.34375 234.175781 118.65625 234.175781 C 120.96875 234.175781 122.863281 232.285156 122.863281 229.96875 C 122.863281 227.65625 120.96875 225.761719 118.65625 225.761719 Z M 118.65625 225.761719 " fill-opacity="1" fill-rule="nonzero"/><path fill="#0adcbf" d="M 159.484375 159.773438 L 132.144531 159.773438 C 129.828125 159.773438 127.9375 157.882812 127.9375 155.566406 C 127.9375 153.253906 129.828125 151.359375 132.144531 151.359375 L 159.484375 151.359375 C 161.796875 151.359375 163.691406 153.253906 163.691406 155.566406 C 163.691406 157.90625 161.796875 159.773438 159.484375 159.773438 Z M 159.484375 159.773438 " fill-opacity="1" fill-rule="nonzero"/><path fill="#0adcbf" d="M 186.851562 172.417969 L 132.167969 172.417969 C 129.855469 172.417969 127.960938 170.527344 127.960938 168.214844 C 127.960938 165.898438 129.855469 164.007812 132.167969 164.007812 L 186.851562 164.007812 C 189.167969 164.007812 191.058594 165.898438 191.058594 168.214844 C 191.058594 170.527344 189.167969 172.417969 186.851562 172.417969 Z M 186.851562 172.417969 " fill-opacity="1" fill-rule="nonzero"/><path fill="#0adcbf" d="M 178.464844 180.832031 C 178.464844 178.492188 180.332031 176.625 182.671875 176.625 C 184.988281 176.625 186.878906 178.492188 186.878906 180.832031 C 186.878906 183.144531 184.988281 185.039062 182.671875 185.039062 C 180.332031 185.039062 178.464844 183.144531 178.464844 180.832031 Z M 165.820312 180.832031 C 165.820312 178.492188 167.6875 176.625 170.027344 176.625 C 172.339844 176.625 174.234375 178.492188 174.234375 180.832031 C 174.234375 183.144531 172.339844 185.039062 170.027344 185.039062 C 167.6875 185.039062 165.820312 183.144531 165.820312 180.832031 Z M 153.203125 180.832031 C 153.203125 178.492188 155.066406 176.625 157.40625 176.625 C 159.722656 176.625 161.613281 178.492188 161.613281 180.832031 C 161.613281 183.144531 159.722656 185.039062 157.40625 185.039062 C 155.066406 185.039062 153.203125 183.144531 153.203125 180.832031 Z M 140.582031 180.832031 C 140.582031 178.492188 142.449219 176.625 144.789062 176.625 C 147.101562 176.625 148.996094 178.492188 148.996094 180.832031 C 148.996094 183.144531 147.101562 185.039062 144.789062 185.039062 C 142.449219 185.039062 140.582031 183.144531 140.582031 180.832031 Z M 127.9375 180.832031 C 127.9375 178.492188 129.804688 176.625 132.144531 176.625 C 134.457031 176.625 136.347656 178.492188 136.347656 180.832031 C 136.347656 183.144531 134.457031 185.039062 132.144531 185.039062 C 129.828125 185.039062 127.9375 183.144531 127.9375 180.832031 Z M 127.9375 180.832031 " fill-opacity="1" fill-rule="nonzero"/><path fill="#0adcbf" d="M 254.421875 161.878906 L 233.019531 161.878906 C 230.707031 161.878906 228.8125 159.984375 228.8125 157.671875 C 228.8125 155.355469 230.707031 153.464844 233.019531 153.464844 L 254.421875 153.464844 C 256.734375 153.464844 258.625 155.355469 258.625 157.671875 C 258.625 160.011719 256.734375 161.878906 254.421875 161.878906 Z M 254.421875 161.878906 " fill-opacity="1" fill-rule="nonzero"/><path fill="#ffffff" d="M 219.402344 96.753906 L 292.59375 96.753906 L 292.59375 126.226562 L 219.402344 126.226562 Z M 219.402344 96.753906 " fill-opacity="1" fill-rule="nonzero"/><path fill="#0adcbf" d="M 292.621094 130.433594 L 219.425781 130.433594 C 217.113281 130.433594 215.222656 128.542969 215.222656 126.226562 L 215.222656 96.753906 C 215.222656 94.441406 217.113281 92.550781 219.425781 92.550781 L 292.621094 92.550781 C 294.933594 92.550781 296.828125 94.441406 296.828125 96.753906 L 296.828125 126.226562 C 296.828125 128.542969 294.933594 130.433594 292.621094 130.433594 Z M 223.632812 122.019531 L 288.414062 122.019531 L 288.414062 100.960938 L 223.632812 100.960938 Z M 223.632812 122.019531 " fill-opacity="1" fill-rule="nonzero"/><path fill="#0adcbf" d="M 265.882812 115.710938 L 232.992188 115.710938 C 230.679688 115.710938 228.785156 113.816406 228.785156 111.503906 C 228.785156 109.191406 230.679688 107.296875 232.992188 107.296875 L 265.882812 107.296875 C 268.195312 107.296875 270.089844 109.191406 270.089844 111.503906 C 270.089844 113.816406 268.195312 115.710938 265.882812 115.710938 Z M 265.882812 115.710938 " fill-opacity="1" fill-rule="nonzero"/><path fill="#0adcbf" d="M 277.6875 161.878906 L 271.246094 161.878906 C 268.933594 161.878906 267.039062 159.984375 267.039062 157.671875 C 267.039062 155.355469 268.933594 153.464844 271.246094 153.464844 L 277.6875 153.464844 C 280 153.464844 281.894531 155.355469 281.894531 157.671875 C 281.917969 160.011719 280.027344 161.878906 277.6875 161.878906 Z M 277.6875 161.878906 " fill-opacity="1" fill-rule="nonzero"/><path fill="#0adcbf" d="M 246.53125 208.4375 L 232.992188 208.4375 C 230.679688 208.4375 228.785156 206.546875 228.785156 204.230469 C 228.785156 201.917969 230.679688 200.023438 232.992188 200.023438 L 246.53125 200.023438 C 248.847656 200.023438 250.738281 201.917969 250.738281 204.230469 C 250.738281 206.546875 248.847656 208.4375 246.53125 208.4375 Z M 246.53125 208.4375 " fill-opacity="1" fill-rule="nonzero"/><path fill="#0adcbf" d="M 274.480469 208.4375 L 261.570312 208.4375 C 259.257812 208.4375 257.363281 206.546875 257.363281 204.230469 C 257.363281 201.917969 259.257812 200.023438 261.570312 200.023438 L 274.480469 200.023438 C 276.792969 200.023438 278.6875 201.917969 278.6875 204.230469 C 278.6875 206.546875 276.792969 208.4375 274.480469 208.4375 Z M 274.480469 208.4375 " fill-opacity="1" fill-rule="nonzero"/><path fill="#ffb827" d="M 185.984375 261.28125 L 157.59375 261.28125 C 155.277344 261.28125 153.386719 259.390625 153.386719 257.074219 C 153.386719 254.761719 155.277344 252.867188 157.59375 252.867188 L 186.011719 252.867188 C 188.324219 252.867188 190.21875 254.761719 190.21875 257.074219 C 190.191406 259.390625 188.324219 261.28125 185.984375 261.28125 Z M 185.984375 261.28125 " fill-opacity="1" fill-rule="nonzero"/><path fill="#ffb827" d="M 185.984375 273.902344 C 183.671875 273.902344 181.78125 272.007812 181.78125 269.695312 L 181.78125 244.429688 C 181.78125 242.117188 183.671875 240.222656 185.984375 240.222656 C 188.300781 240.222656 190.191406 242.117188 190.191406 244.429688 L 190.191406 269.695312 C 190.191406 272.007812 188.324219 273.902344 185.984375 273.902344 Z M 185.984375 273.902344 " fill-opacity="1" fill-rule="nonzero"/><path fill="#ffb827" d="M 172.734375 249.582031 L 157.90625 249.582031 C 155.59375 249.582031 153.699219 247.691406 153.699219 245.375 C 153.699219 243.0625 155.59375 241.167969 157.90625 241.167969 L 172.734375 241.167969 C 175.050781 241.167969 176.941406 243.0625 176.941406 245.375 C 176.941406 247.691406 175.074219 249.582031 172.734375 249.582031 Z M 172.734375 249.582031 " fill-opacity="1" fill-rule="nonzero"/><path fill="#ffb827" d="M 165.320312 273.191406 L 157.566406 273.191406 C 155.253906 273.191406 153.359375 271.296875 153.359375 268.984375 C 153.359375 266.671875 155.253906 264.777344 157.566406 264.777344 L 165.320312 264.777344 C 167.636719 264.777344 169.527344 266.671875 169.527344 268.984375 C 169.527344 271.324219 167.660156 273.191406 165.320312 273.191406 Z M 165.320312 273.191406 " fill-opacity="1" fill-rule="nonzero"/><path fill="#ffb827" d="M 213.855469 249.582031 L 200.5 249.582031 C 198.183594 249.582031 196.292969 247.691406 196.292969 245.375 C 196.292969 243.0625 198.183594 241.167969 200.5 241.167969 L 213.855469 241.167969 C 216.167969 241.167969 218.058594 243.0625 218.058594 245.375 C 218.058594 247.691406 216.167969 249.582031 213.855469 249.582031 Z M 213.855469 249.582031 " fill-opacity="1" fill-rule="nonzero"/><path fill="#ffb827" d="M 213.855469 261.28125 L 198.632812 261.28125 C 196.316406 261.28125 194.425781 259.390625 194.425781 257.074219 C 194.425781 254.761719 196.316406 252.867188 198.632812 252.867188 L 213.855469 252.867188 C 216.167969 252.867188 218.058594 254.761719 218.058594 257.074219 C 218.058594 259.390625 216.167969 261.28125 213.855469 261.28125 Z M 213.855469 261.28125 " fill-opacity="1" fill-rule="nonzero"/><path fill="#ffb827" d="M 213.855469 272.71875 L 198.632812 272.71875 C 196.316406 272.71875 194.425781 270.824219 194.425781 268.511719 C 194.425781 266.199219 196.316406 264.304688 198.632812 264.304688 L 213.855469 264.304688 C 216.167969 264.304688 218.058594 266.199219 218.058594 268.511719 C 218.058594 270.851562 216.167969 272.71875 213.855469 272.71875 Z M 213.855469 272.71875 " fill-opacity="1" fill-rule="nonzero"/><path fill="#0adcbf" d="M 279.316406 115.710938 L 277.714844 115.710938 C 275.398438 115.710938 273.507812 113.816406 273.507812 111.503906 C 273.507812 109.191406 275.398438 107.296875 277.714844 107.296875 L 279.316406 107.296875 C 281.628906 107.296875 283.523438 109.191406 283.523438 111.503906 C 283.523438 113.816406 281.628906 115.710938 279.316406 115.710938 Z M 279.316406 115.710938 " fill-opacity="1" fill-rule="nonzero"/></svg>